<svg xmlns="http://www.w3.org/2000/svg" width="1200" height="260" viewBox="0 0 1200 260" role="img" aria-label="KiriminAja API Reference">
<defs>
<linearGradient id="bg" x1="0" y1="0" x2="1" y2="1"><stop offset="0" stop-color="#0b1220"/><stop offset="1" stop-color="#141d33"/></linearGradient>
<linearGradient id="acc" x1="0" y1="0" x2="1" y2="0"><stop offset="0" stop-color="#22d3ee"/><stop offset="1" stop-color="#34d399"/></linearGradient>
<clipPath id="round"><rect width="1200" height="260" rx="14"/></clipPath>
</defs>
<g clip-path="url(#round)" shape-rendering="crispEdges">
<rect x="0" y="0" width="1200" height="260" fill="url(#bg)"/>
<line x1="0" y1="0" x2="0" y2="260" stroke="#ffffff" stroke-opacity="0.025"/><line x1="20" y1="0" x2="20" y2="260" stroke="#ffffff" stroke-opacity="0.025"/><line x1="40" y1="0" x2="40" y2="260" stroke="#ffffff" stroke-opacity="0.025"/><line x1="60" y1="0" x2="60" y2="260" stroke="#ffffff" stroke-opacity="0.025"/><line x1="80" y1="0" x2="80" y2="260" stroke="#ffffff" stroke-opacity="0.025"/><line x1="100" y1="0" x2="100" y2="260" stroke="#ffffff" stroke-opacity="0.025"/><line x1="120" y1="0" x2="120" y2="260" stroke="#ffffff" stroke-opacity="0.025"/><line x1="140" y1="0" x2="140" y2="260" stroke="#ffffff" stroke-opacity="0.025"/><line x1="160" y1="0" x2="160" y2="260" stroke="#ffffff" stroke-opacity="0.025"/><line x1="180" y1="0" x2="180" y2="260" stroke="#ffffff" stroke-opacity="0.025"/><line x1="200" y1="0" x2="200" y2="260" stroke="#ffffff" stroke-opacity="0.025"/><line x1="220" y1="0" x2="220" y2="260" stroke="#ffffff" stroke-opacity="0.025"/><line x1="240" y1="0" x2="240" y2="260" stroke="#ffffff" stroke-opacity="0.025"/><line x1="260" y1="0" x2="260" y2="260" stroke="#ffffff" stroke-opacity="0.025"/><line x1="280" y1="0" x2="280" y2="260" stroke="#ffffff" stroke-opacity="0.025"/><line x1="300" y1="0" x2="300" y2="260" stroke="#ffffff" stroke-opacity="0.025"/><line x1="320" y1="0" x2="320" y2="260" stroke="#ffffff" stroke-opacity="0.025"/><line x1="340" y1="0" x2="340" y2="260" stroke="#ffffff" stroke-opacity="0.025"/><line x1="360" y1="0" x2="360" y2="260" stroke="#ffffff" stroke-opacity="0.025"/><line x1="380" y1="0" x2="380" y2="260" stroke="#ffffff" stroke-opacity="0.025"/><line x1="400" y1="0" x2="400" y2="260" stroke="#ffffff" stroke-opacity="0.025"/><line x1="420" y1="0" x2="420" y2="260" stroke="#ffffff" stroke-opacity="0.025"/><line x1="440" y1="0" x2="440" y2="260" stroke="#ffffff" stroke-opacity="0.025"/><line x1="460" y1="0" x2="460" y2="260" stroke="#ffffff" stroke-opacity="0.025"/><line x1="480" y1="0" x2="480" y2="260" stroke="#ffffff" stroke-opacity="0.025"/><line x1="500" y1="0" x2="500" y2="260" stroke="#ffffff" stroke-opacity="0.025"/><line x1="520" y1="0" x2="520" y2="260" stroke="#ffffff" stroke-opacity="0.025"/><line x1="540" y1="0" x2="540" y2="260" stroke="#ffffff" stroke-opacity="0.025"/><line x1="560" y1="0" x2="560" y2="260" stroke="#ffffff" stroke-opacity="0.025"/><line x1="580" y1="0" x2="580" y2="260" stroke="#ffffff" stroke-opacity="0.025"/><line x1="600" y1="0" x2="600" y2="260" stroke="#ffffff" stroke-opacity="0.025"/><line x1="620" y1="0" x2="620" y2="260" stroke="#ffffff" stroke-opacity="0.025"/><line x1="640" y1="0" x2="640" y2="260" stroke="#ffffff" stroke-opacity="0.025"/><line x1="660" y1="0" x2="660" y2="260" stroke="#ffffff" stroke-opacity="0.025"/><line x1="680" y1="0" x2="680" y2="260" stroke="#ffffff" stroke-opacity="0.025"/><line x1="700" y1="0" x2="700" y2="260" stroke="#ffffff" stroke-opacity="0.025"/><line x1="720" y1="0" x2="720" y2="260" stroke="#ffffff" stroke-opacity="0.025"/><line x1="740" y1="0" x2="740" y2="260" stroke="#ffffff" stroke-opacity="0.025"/><line x1="760" y1="0" x2="760" y2="260" stroke="#ffffff" stroke-opacity="0.025"/><line x1="780" y1="0" x2="780" y2="260" stroke="#ffffff" stroke-opacity="0.025"/><line x1="800" y1="0" x2="800" y2="260" stroke="#ffffff" stroke-opacity="0.025"/><line x1="820" y1="0" x2="820" y2="260" stroke="#ffffff" stroke-opacity="0.025"/><line x1="840" y1="0" x2="840" y2="260" stroke="#ffffff" stroke-opacity="0.025"/><line x1="860" y1="0" x2="860" y2="260" stroke="#ffffff" stroke-opacity="0.025"/><line x1="880" y1="0" x2="880" y2="260" stroke="#ffffff" stroke-opacity="0.025"/><line x1="900" y1="0" x2="900" y2="260" stroke="#ffffff" stroke-opacity="0.025"/><line x1="920" y1="0" x2="920" y2="260" stroke="#ffffff" stroke-opacity="0.025"/><line x1="940" y1="0" x2="940" y2="260" stroke="#ffffff" stroke-opacity="0.025"/><line x1="960" y1="0" x2="960" y2="260" stroke="#ffffff" stroke-opacity="0.025"/><line x1="980" y1="0" x2="980" y2="260" stroke="#ffffff" stroke-opacity="0.025"/><line x1="1000" y1="0" x2="1000" y2="260" stroke="#ffffff" stroke-opacity="0.025"/><line x1="1020" y1="0" x2="1020" y2="260" stroke="#ffffff" stroke-opacity="0.025"/><line x1="1040" y1="0" x2="1040" y2="260" stroke="#ffffff" stroke-opacity="0.025"/><line x1="1060" y1="0" x2="1060" y2="260" stroke="#ffffff" stroke-opacity="0.025"/><line x1="1080" y1="0" x2="1080" y2="260" stroke="#ffffff" stroke-opacity="0.025"/><line x1="1100" y1="0" x2="1100" y2="260" stroke="#ffffff" stroke-opacity="0.025"/><line x1="1120" y1="0" x2="1120" y2="260" stroke="#ffffff" stroke-opacity="0.025"/><line x1="1140" y1="0" x2="1140" y2="260" stroke="#ffffff" stroke-opacity="0.025"/><line x1="1160" y1="0" x2="1160" y2="260" stroke="#ffffff" stroke-opacity="0.025"/><line x1="1180" y1="0" x2="1180" y2="260" stroke="#ffffff" stroke-opacity="0.025"/><line x1="0" y1="0" x2="1200" y2="0" stroke="#ffffff" stroke-opacity="0.025"/><line x1="0" y1="20" x2="1200" y2="20" stroke="#ffffff" stroke-opacity="0.025"/><line x1="0" y1="40" x2="1200" y2="40" stroke="#ffffff" stroke-opacity="0.025"/><line x1="0" y1="60" x2="1200" y2="60" stroke="#ffffff" stroke-opacity="0.025"/><line x1="0" y1="80" x2="1200" y2="80" stroke="#ffffff" stroke-opacity="0.025"/><line x1="0" y1="100" x2="1200" y2="100" stroke="#ffffff" stroke-opacity="0.025"/><line x1="0" y1="120" x2="1200" y2="120" stroke="#ffffff" stroke-opacity="0.025"/><line x1="0" y1="140" x2="1200" y2="140" stroke="#ffffff" stroke-opacity="0.025"/><line x1="0" y1="160" x2="1200" y2="160" stroke="#ffffff" stroke-opacity="0.025"/><line x1="0" y1="180" x2="1200" y2="180" stroke="#ffffff" stroke-opacity="0.025"/><line x1="0" y1="200" x2="1200" y2="200" stroke="#ffffff" stroke-opacity="0.025"/><line x1="0" y1="220" x2="1200" y2="220" stroke="#ffffff" stroke-opacity="0.025"/><line x1="0" y1="240" x2="1200" y2="240" stroke="#ffffff" stroke-opacity="0.025"/>
<rect x="0" y="0" width="1200" height="1" fill="#000000" fill-opacity="0.10"/><rect x="0" y="4" width="1200" height="1" fill="#000000" fill-opacity="0.10"/><rect x="0" y="8" width="1200" height="1" fill="#000000" fill-opacity="0.10"/><rect x="0" y="12" width="1200" height="1" fill="#000000" fill-opacity="0.10"/><rect x="0" y="16" width="1200" height="1" fill="#000000" fill-opacity="0.10"/><rect x="0" y="20" width="1200" height="1" fill="#000000" fill-opacity="0.10"/><rect x="0" y="24" width="1200" height="1" fill="#000000" fill-opacity="0.10"/><rect x="0" y="28" width="1200" height="1" fill="#000000" fill-opacity="0.10"/><rect x="0" y="32" width="1200" height="1" fill="#000000" fill-opacity="0.10"/><rect x="0" y="36" width="1200" height="1" fill="#000000" fill-opacity="0.10"/><rect x="0" y="40" width="1200" height="1" fill="#000000" fill-opacity="0.10"/><rect x="0" y="44" width="1200" height="1" fill="#000000" fill-opacity="0.10"/><rect x="0" y="48" width="1200" height="1" fill="#000000" fill-opacity="0.10"/><rect x="0" y="52" width="1200" height="1" fill="#000000" fill-opacity="0.10"/><rect x="0" y="56" width="1200" height="1" fill="#000000" fill-opacity="0.10"/><rect x="0" y="60" width="1200" height="1" fill="#000000" fill-opacity="0.10"/><rect x="0" y="64" width="1200" height="1" fill="#000000" fill-opacity="0.10"/><rect x="0" y="68" width="1200" height="1" fill="#000000" fill-opacity="0.10"/><rect x="0" y="72" width="1200" height="1" fill="#000000" fill-opacity="0.10"/><rect x="0" y="76" width="1200" height="1" fill="#000000" fill-opacity="0.10"/><rect x="0" y="80" width="1200" height="1" fill="#000000" fill-opacity="0.10"/><rect x="0" y="84" width="1200" height="1" fill="#000000" fill-opacity="0.10"/><rect x="0" y="88" width="1200" height="1" fill="#000000" fill-opacity="0.10"/><rect x="0" y="92" width="1200" height="1" fill="#000000" fill-opacity="0.10"/><rect x="0" y="96" width="1200" height="1" fill="#000000" fill-opacity="0.10"/><rect x="0" y="100" width="1200" height="1" fill="#000000" fill-opacity="0.10"/><rect x="0" y="104" width="1200" height="1" fill="#000000" fill-opacity="0.10"/><rect x="0" y="108" width="1200" height="1" fill="#000000" fill-opacity="0.10"/><rect x="0" y="112" width="1200" height="1" fill="#000000" fill-opacity="0.10"/><rect x="0" y="116" width="1200" height="1" fill="#000000" fill-opacity="0.10"/><rect x="0" y="120" width="1200" height="1" fill="#000000" fill-opacity="0.10"/><rect x="0" y="124" width="1200" height="1" fill="#000000" fill-opacity="0.10"/><rect x="0" y="128" width="1200" height="1" fill="#000000" fill-opacity="0.10"/><rect x="0" y="132" width="1200" height="1" fill="#000000" fill-opacity="0.10"/><rect x="0" y="136" width="1200" height="1" fill="#000000" fill-opacity="0.10"/><rect x="0" y="140" width="1200" height="1" fill="#000000" fill-opacity="0.10"/><rect x="0" y="144" width="1200" height="1" fill="#000000" fill-opacity="0.10"/><rect x="0" y="148" width="1200" height="1" fill="#000000" fill-opacity="0.10"/><rect x="0" y="152" width="1200" height="1" fill="#000000" fill-opacity="0.10"/><rect x="0" y="156" width="1200" height="1" fill="#000000" fill-opacity="0.10"/><rect x="0" y="160" width="1200" height="1" fill="#000000" fill-opacity="0.10"/><rect x="0" y="164" width="1200" height="1" fill="#000000" fill-opacity="0.10"/><rect x="0" y="168" width="1200" height="1" fill="#000000" fill-opacity="0.10"/><rect x="0" y="172" width="1200" height="1" fill="#000000" fill-opacity="0.10"/><rect x="0" y="176" width="1200" height="1" fill="#000000" fill-opacity="0.10"/><rect x="0" y="180" width="1200" height="1" fill="#000000" fill-opacity="0.10"/><rect x="0" y="184" width="1200" height="1" fill="#000000" fill-opacity="0.10"/><rect x="0" y="188" width="1200" height="1" fill="#000000" fill-opacity="0.10"/><rect x="0" y="192" width="1200" height="1" fill="#000000" fill-opacity="0.10"/><rect x="0" y="196" width="1200" height="1" fill="#000000" fill-opacity="0.10"/><rect x="0" y="200" width="1200" height="1" fill="#000000" fill-opacity="0.10"/><rect x="0" y="204" width="1200" height="1" fill="#000000" fill-opacity="0.10"/><rect x="0" y="208" width="1200" height="1" fill="#000000" fill-opacity="0.10"/><rect x="0" y="212" width="1200" height="1" fill="#000000" fill-opacity="0.10"/><rect x="0" y="216" width="1200" height="1" fill="#000000" fill-opacity="0.10"/><rect x="0" y="220" width="1200" height="1" fill="#000000" fill-opacity="0.10"/><rect x="0" y="224" width="1200" height="1" fill="#000000" fill-opacity="0.10"/><rect x="0" y="228" width="1200" height="1" fill="#000000" fill-opacity="0.10"/><rect x="0" y="232" width="1200" height="1" fill="#000000" fill-opacity="0.10"/><rect x="0" y="236" width="1200" height="1" fill="#000000" fill-opacity="0.10"/><rect x="0" y="240" width="1200" height="1" fill="#000000" fill-opacity="0.10"/><rect x="0" y="244" width="1200" height="1" fill="#000000" fill-opacity="0.10"/><rect x="0" y="248" width="1200" height="1" fill="#000000" fill-opacity="0.10"/><rect x="0" y="252" width="1200" height="1" fill="#000000" fill-opacity="0.10"/><rect x="0" y="256" width="1200" height="1" fill="#000000" fill-opacity="0.10"/>
<rect x="60" y="52" width="84" height="6" fill="url(#acc)"/>
<rect x="63" y="75" width="9" height="9" fill="#f472b6"/><rect x="99" y="75" width="9" height="9" fill="#f472b6"/><rect x="63" y="84" width="9" height="9" fill="#f472b6"/><rect x="90" y="84" width="9" height="9" fill="#f472b6"/><rect x="63" y="93" width="9" height="9" fill="#f472b6"/><rect x="81" y="93" width="9" height="9" fill="#f472b6"/><rect x="63" y="102" width="9" height="9" fill="#f472b6"/><rect x="72" y="102" width="9" height="9" fill="#f472b6"/><rect x="63" y="111" width="9" height="9" fill="#f472b6"/><rect x="81" y="111" width="9" height="9" fill="#f472b6"/><rect x="63" y="120" width="9" height="9" fill="#f472b6"/><rect x="90" y="120" width="9" height="9" fill="#f472b6"/><rect x="63" y="129" width="9" height="9" fill="#f472b6"/><rect x="99" y="129" width="9" height="9" fill="#f472b6"/><rect x="117" y="75" width="9" height="9" fill="#f472b6"/><rect x="126" y="75" width="9" height="9" fill="#f472b6"/><rect x="135" y="75" width="9" height="9" fill="#f472b6"/><rect x="144" y="75" width="9" height="9" fill="#f472b6"/><rect x="153" y="75" width="9" height="9" fill="#f472b6"/><rect x="135" y="84" width="9" height="9" fill="#f472b6"/><rect x="135" y="93" width="9" height="9" fill="#f472b6"/><rect x="135" y="102" width="9" height="9" fill="#f472b6"/><rect x="135" y="111" width="9" height="9" fill="#f472b6"/><rect x="135" y="120" width="9" height="9" fill="#f472b6"/><rect x="117" y="129" width="9" height="9" fill="#f472b6"/><rect x="126" y="129" width="9" height="9" fill="#f472b6"/><rect x="135" y="129" width="9" height="9" fill="#f472b6"/><rect x="144" y="129" width="9" height="9" fill="#f472b6"/><rect x="153" y="129" width="9" height="9" fill="#f472b6"/><rect x="171" y="75" width="9" height="9" fill="#f472b6"/><rect x="180" y="75" width="9" height="9" fill="#f472b6"/><rect x="189" y="75" width="9" height="9" fill="#f472b6"/><rect x="198" y="75" width="9" height="9" fill="#f472b6"/><rect x="171" y="84" width="9" height="9" fill="#f472b6"/><rect x="207" y="84" width="9" height="9" fill="#f472b6"/><rect x="171" y="93" width="9" height="9" fill="#f472b6"/><rect x="207" y="93" width="9" height="9" fill="#f472b6"/><rect x="171" y="102" width="9" height="9" fill="#f472b6"/><rect x="180" y="102" width="9" height="9" fill="#f472b6"/><rect x="189" y="102" width="9" height="9" fill="#f472b6"/><rect x="198" y="102" width="9" height="9" fill="#f472b6"/><rect x="171" y="111" width="9" height="9" fill="#f472b6"/><rect x="189" y="111" width="9" height="9" fill="#f472b6"/><rect x="171" y="120" width="9" height="9" fill="#f472b6"/><rect x="198" y="120" width="9" height="9" fill="#f472b6"/><rect x="171" y="129" width="9" height="9" fill="#f472b6"/><rect x="207" y="129" width="9" height="9" fill="#f472b6"/><rect x="225" y="75" width="9" height="9" fill="#f472b6"/><rect x="234" y="75" width="9" height="9" fill="#f472b6"/><rect x="243" y="75" width="9" height="9" fill="#f472b6"/><rect x="252" y="75" width="9" height="9" fill="#f472b6"/><rect x="261" y="75" width="9" height="9" fill="#f472b6"/><rect x="243" y="84" width="9" height="9" fill="#f472b6"/><rect x="243" y="93" width="9" height="9" fill="#f472b6"/><rect x="243" y="102" width="9" height="9" fill="#f472b6"/><rect x="243" y="111" width="9" height="9" fill="#f472b6"/><rect x="243" y="120" width="9" height="9" fill="#f472b6"/><rect x="225" y="129" width="9" height="9" fill="#f472b6"/><rect x="234" y="129" width="9" height="9" fill="#f472b6"/><rect x="243" y="129" width="9" height="9" fill="#f472b6"/><rect x="252" y="129" width="9" height="9" fill="#f472b6"/><rect x="261" y="129" width="9" height="9" fill="#f472b6"/><rect x="279" y="75" width="9" height="9" fill="#f472b6"/><rect x="315" y="75" width="9" height="9" fill="#f472b6"/><rect x="279" y="84" width="9" height="9" fill="#f472b6"/><rect x="288" y="84" width="9" height="9" fill="#f472b6"/><rect x="306" y="84" width="9" height="9" fill="#f472b6"/><rect x="315" y="84" width="9" height="9" fill="#f472b6"/><rect x="279" y="93" width="9" height="9" fill="#f472b6"/><rect x="297" y="93" width="9" height="9" fill="#f472b6"/><rect x="315" y="93" width="9" height="9" fill="#f472b6"/><rect x="279" y="102" width="9" height="9" fill="#f472b6"/><rect x="297" y="102" width="9" height="9" fill="#f472b6"/><rect x="315" y="102" width="9" height="9" fill="#f472b6"/><rect x="279" y="111" width="9" height="9" fill="#f472b6"/><rect x="315" y="111" width="9" height="9" fill="#f472b6"/><rect x="279" y="120" width="9" height="9" fill="#f472b6"/><rect x="315" y="120" width="9" height="9" fill="#f472b6"/><rect x="279" y="129" width="9" height="9" fill="#f472b6"/><rect x="315" y="129" width="9" height="9" fill="#f472b6"/><rect x="333" y="75" width="9" height="9" fill="#f472b6"/><rect x="342" y="75" width="9" height="9" fill="#f472b6"/><rect x="351" y="75" width="9" height="9" fill="#f472b6"/><rect x="360" y="75" width="9" height="9" fill="#f472b6"/><rect x="369" y="75" width="9" height="9" fill="#f472b6"/><rect x="351" y="84" width="9" height="9" fill="#f472b6"/><rect x="351" y="93" width="9" height="9" fill="#f472b6"/><rect x="351" y="102" width="9" height="9" fill="#f472b6"/><rect x="351" y="111" width="9" height="9" fill="#f472b6"/><rect x="351" y="120" width="9" height="9" fill="#f472b6"/><rect x="333" y="129" width="9" height="9" fill="#f472b6"/><rect x="342" y="129" width="9" height="9" fill="#f472b6"/><rect x="351" y="129" width="9" height="9" fill="#f472b6"/><rect x="360" y="129" width="9" height="9" fill="#f472b6"/><rect x="369" y="129" width="9" height="9" fill="#f472b6"/><rect x="387" y="75" width="9" height="9" fill="#f472b6"/><rect x="423" y="75" width="9" height="9" fill="#f472b6"/><rect x="387" y="84" width="9" height="9" fill="#f472b6"/><rect x="396" y="84" width="9" height="9" fill="#f472b6"/><rect x="423" y="84" width="9" height="9" fill="#f472b6"/><rect x="387" y="93" width="9" height="9" fill="#f472b6"/><rect x="405" y="93" width="9" height="9" fill="#f472b6"/><rect x="423" y="93" width="9" height="9" fill="#f472b6"/><rect x="387" y="102" width="9" height="9" fill="#f472b6"/><rect x="405" y="102" width="9" height="9" fill="#f472b6"/><rect x="423" y="102" width="9" height="9" fill="#f472b6"/><rect x="387" y="111" width="9" height="9" fill="#f472b6"/><rect x="414" y="111" width="9" height="9" fill="#f472b6"/><rect x="423" y="111" width="9" height="9" fill="#f472b6"/><rect x="387" y="120" width="9" height="9" fill="#f472b6"/><rect x="423" y="120" width="9" height="9" fill="#f472b6"/><rect x="387" y="129" width="9" height="9" fill="#f472b6"/><rect x="423" y="129" width="9" height="9" fill="#f472b6"/><rect x="450" y="75" width="9" height="9" fill="#f472b6"/><rect x="459" y="75" width="9" height="9" fill="#f472b6"/><rect x="468" y="75" width="9" height="9" fill="#f472b6"/><rect x="441" y="84" width="9" height="9" fill="#f472b6"/><rect x="477" y="84" width="9" height="9" fill="#f472b6"/><rect x="441" y="93" width="9" height="9" fill="#f472b6"/><rect x="477" y="93" width="9" height="9" fill="#f472b6"/><rect x="441" y="102" width="9" height="9" fill="#f472b6"/><rect x="450" y="102" width="9" height="9" fill="#f472b6"/><rect x="459" y="102" width="9" height="9" fill="#f472b6"/><rect x="468" y="102" width="9" height="9" fill="#f472b6"/><rect x="477" y="102" width="9" height="9" fill="#f472b6"/><rect x="441" y="111" width="9" height="9" fill="#f472b6"/><rect x="477" y="111" width="9" height="9" fill="#f472b6"/><rect x="441" y="120" width="9" height="9" fill="#f472b6"/><rect x="477" y="120" width="9" height="9" fill="#f472b6"/><rect x="441" y="129" width="9" height="9" fill="#f472b6"/><rect x="477" y="129" width="9" height="9" fill="#f472b6"/><rect x="513" y="75" width="9" height="9" fill="#f472b6"/><rect x="522" y="75" width="9" height="9" fill="#f472b6"/><rect x="531" y="75" width="9" height="9" fill="#f472b6"/><rect x="522" y="84" width="9" height="9" fill="#f472b6"/><rect x="522" y="93" width="9" height="9" fill="#f472b6"/><rect x="522" y="102" width="9" height="9" fill="#f472b6"/><rect x="495" y="111" width="9" height="9" fill="#f472b6"/><rect x="522" y="111" width="9" height="9" fill="#f472b6"/><rect x="495" y="120" width="9" height="9" fill="#f472b6"/><rect x="522" y="120" width="9" height="9" fill="#f472b6"/><rect x="504" y="129" width="9" height="9" fill="#f472b6"/><rect x="513" y="129" width="9" height="9" fill="#f472b6"/><rect x="558" y="75" width="9" height="9" fill="#f472b6"/><rect x="567" y="75" width="9" height="9" fill="#f472b6"/><rect x="576" y="75" width="9" height="9" fill="#f472b6"/><rect x="549" y="84" width="9" height="9" fill="#f472b6"/><rect x="585" y="84" width="9" height="9" fill="#f472b6"/><rect x="549" y="93" width="9" height="9" fill="#f472b6"/><rect x="585" y="93" width="9" height="9" fill="#f472b6"/><rect x="549" y="102" width="9" height="9" fill="#f472b6"/><rect x="558" y="102" width="9" height="9" fill="#f472b6"/><rect x="567" y="102" width="9" height="9" fill="#f472b6"/><rect x="576" y="102" width="9" height="9" fill="#f472b6"/><rect x="585" y="102" width="9" height="9" fill="#f472b6"/><rect x="549" y="111" width="9" height="9" fill="#f472b6"/><rect x="585" y="111" width="9" height="9" fill="#f472b6"/><rect x="549" y="120" width="9" height="9" fill="#f472b6"/><rect x="585" y="120" width="9" height="9" fill="#f472b6"/><rect x="549" y="129" width="9" height="9" fill="#f472b6"/><rect x="585" y="129" width="9" height="9" fill="#f472b6"/><rect x="60" y="72" width="9" height="9" fill="#f8fafc"/><rect x="96" y="72" width="9" height="9" fill="#f8fafc"/><rect x="60" y="81" width="9" height="9" fill="#f8fafc"/><rect x="87" y="81" width="9" height="9" fill="#f8fafc"/><rect x="60" y="90" width="9" height="9" fill="#f8fafc"/><rect x="78" y="90" width="9" height="9" fill="#f8fafc"/><rect x="60" y="99" width="9" height="9" fill="#f8fafc"/><rect x="69" y="99" width="9" height="9" fill="#f8fafc"/><rect x="60" y="108" width="9" height="9" fill="#f8fafc"/><rect x="78" y="108" width="9" height="9" fill="#f8fafc"/><rect x="60" y="117" width="9" height="9" fill="#f8fafc"/><rect x="87" y="117" width="9" height="9" fill="#f8fafc"/><rect x="60" y="126" width="9" height="9" fill="#f8fafc"/><rect x="96" y="126" width="9" height="9" fill="#f8fafc"/><rect x="114" y="72" width="9" height="9" fill="#f8fafc"/><rect x="123" y="72" width="9" height="9" fill="#f8fafc"/><rect x="132" y="72" width="9" height="9" fill="#f8fafc"/><rect x="141" y="72" width="9" height="9" fill="#f8fafc"/><rect x="150" y="72" width="9" height="9" fill="#f8fafc"/><rect x="132" y="81" width="9" height="9" fill="#f8fafc"/><rect x="132" y="90" width="9" height="9" fill="#f8fafc"/><rect x="132" y="99" width="9" height="9" fill="#f8fafc"/><rect x="132" y="108" width="9" height="9" fill="#f8fafc"/><rect x="132" y="117" width="9" height="9" fill="#f8fafc"/><rect x="114" y="126" width="9" height="9" fill="#f8fafc"/><rect x="123" y="126" width="9" height="9" fill="#f8fafc"/><rect x="132" y="126" width="9" height="9" fill="#f8fafc"/><rect x="141" y="126" width="9" height="9" fill="#f8fafc"/><rect x="150" y="126" width="9" height="9" fill="#f8fafc"/><rect x="168" y="72" width="9" height="9" fill="#f8fafc"/><rect x="177" y="72" width="9" height="9" fill="#f8fafc"/><rect x="186" y="72" width="9" height="9" fill="#f8fafc"/><rect x="195" y="72" width="9" height="9" fill="#f8fafc"/><rect x="168" y="81" width="9" height="9" fill="#f8fafc"/><rect x="204" y="81" width="9" height="9" fill="#f8fafc"/><rect x="168" y="90" width="9" height="9" fill="#f8fafc"/><rect x="204" y="90" width="9" height="9" fill="#f8fafc"/><rect x="168" y="99" width="9" height="9" fill="#f8fafc"/><rect x="177" y="99" width="9" height="9" fill="#f8fafc"/><rect x="186" y="99" width="9" height="9" fill="#f8fafc"/><rect x="195" y="99" width="9" height="9" fill="#f8fafc"/><rect x="168" y="108" width="9" height="9" fill="#f8fafc"/><rect x="186" y="108" width="9" height="9" fill="#f8fafc"/><rect x="168" y="117" width="9" height="9" fill="#f8fafc"/><rect x="195" y="117" width="9" height="9" fill="#f8fafc"/><rect x="168" y="126" width="9" height="9" fill="#f8fafc"/><rect x="204" y="126" width="9" height="9" fill="#f8fafc"/><rect x="222" y="72" width="9" height="9" fill="#f8fafc"/><rect x="231" y="72" width="9" height="9" fill="#f8fafc"/><rect x="240" y="72" width="9" height="9" fill="#f8fafc"/><rect x="249" y="72" width="9" height="9" fill="#f8fafc"/><rect x="258" y="72" width="9" height="9" fill="#f8fafc"/><rect x="240" y="81" width="9" height="9" fill="#f8fafc"/><rect x="240" y="90" width="9" height="9" fill="#f8fafc"/><rect x="240" y="99" width="9" height="9" fill="#f8fafc"/><rect x="240" y="108" width="9" height="9" fill="#f8fafc"/><rect x="240" y="117" width="9" height="9" fill="#f8fafc"/><rect x="222" y="126" width="9" height="9" fill="#f8fafc"/><rect x="231" y="126" width="9" height="9" fill="#f8fafc"/><rect x="240" y="126" width="9" height="9" fill="#f8fafc"/><rect x="249" y="126" width="9" height="9" fill="#f8fafc"/><rect x="258" y="126" width="9" height="9" fill="#f8fafc"/><rect x="276" y="72" width="9" height="9" fill="#f8fafc"/><rect x="312" y="72" width="9" height="9" fill="#f8fafc"/><rect x="276" y="81" width="9" height="9" fill="#f8fafc"/><rect x="285" y="81" width="9" height="9" fill="#f8fafc"/><rect x="303" y="81" width="9" height="9" fill="#f8fafc"/><rect x="312" y="81" width="9" height="9" fill="#f8fafc"/><rect x="276" y="90" width="9" height="9" fill="#f8fafc"/><rect x="294" y="90" width="9" height="9" fill="#f8fafc"/><rect x="312" y="90" width="9" height="9" fill="#f8fafc"/><rect x="276" y="99" width="9" height="9" fill="#f8fafc"/><rect x="294" y="99" width="9" height="9" fill="#f8fafc"/><rect x="312" y="99" width="9" height="9" fill="#f8fafc"/><rect x="276" y="108" width="9" height="9" fill="#f8fafc"/><rect x="312" y="108" width="9" height="9" fill="#f8fafc"/><rect x="276" y="117" width="9" height="9" fill="#f8fafc"/><rect x="312" y="117" width="9" height="9" fill="#f8fafc"/><rect x="276" y="126" width="9" height="9" fill="#f8fafc"/><rect x="312" y="126" width="9" height="9" fill="#f8fafc"/><rect x="330" y="72" width="9" height="9" fill="#f8fafc"/><rect x="339" y="72" width="9" height="9" fill="#f8fafc"/><rect x="348" y="72" width="9" height="9" fill="#f8fafc"/><rect x="357" y="72" width="9" height="9" fill="#f8fafc"/><rect x="366" y="72" width="9" height="9" fill="#f8fafc"/><rect x="348" y="81" width="9" height="9" fill="#f8fafc"/><rect x="348" y="90" width="9" height="9" fill="#f8fafc"/><rect x="348" y="99" width="9" height="9" fill="#f8fafc"/><rect x="348" y="108" width="9" height="9" fill="#f8fafc"/><rect x="348" y="117" width="9" height="9" fill="#f8fafc"/><rect x="330" y="126" width="9" height="9" fill="#f8fafc"/><rect x="339" y="126" width="9" height="9" fill="#f8fafc"/><rect x="348" y="126" width="9" height="9" fill="#f8fafc"/><rect x="357" y="126" width="9" height="9" fill="#f8fafc"/><rect x="366" y="126" width="9" height="9" fill="#f8fafc"/><rect x="384" y="72" width="9" height="9" fill="#f8fafc"/><rect x="420" y="72" width="9" height="9" fill="#f8fafc"/><rect x="384" y="81" width="9" height="9" fill="#f8fafc"/><rect x="393" y="81" width="9" height="9" fill="#f8fafc"/><rect x="420" y="81" width="9" height="9" fill="#f8fafc"/><rect x="384" y="90" width="9" height="9" fill="#f8fafc"/><rect x="402" y="90" width="9" height="9" fill="#f8fafc"/><rect x="420" y="90" width="9" height="9" fill="#f8fafc"/><rect x="384" y="99" width="9" height="9" fill="#f8fafc"/><rect x="402" y="99" width="9" height="9" fill="#f8fafc"/><rect x="420" y="99" width="9" height="9" fill="#f8fafc"/><rect x="384" y="108" width="9" height="9" fill="#f8fafc"/><rect x="411" y="108" width="9" height="9" fill="#f8fafc"/><rect x="420" y="108" width="9" height="9" fill="#f8fafc"/><rect x="384" y="117" width="9" height="9" fill="#f8fafc"/><rect x="420" y="117" width="9" height="9" fill="#f8fafc"/><rect x="384" y="126" width="9" height="9" fill="#f8fafc"/><rect x="420" y="126" width="9" height="9" fill="#f8fafc"/><rect x="447" y="72" width="9" height="9" fill="#f8fafc"/><rect x="456" y="72" width="9" height="9" fill="#f8fafc"/><rect x="465" y="72" width="9" height="9" fill="#f8fafc"/><rect x="438" y="81" width="9" height="9" fill="#f8fafc"/><rect x="474" y="81" width="9" height="9" fill="#f8fafc"/><rect x="438" y="90" width="9" height="9" fill="#f8fafc"/><rect x="474" y="90" width="9" height="9" fill="#f8fafc"/><rect x="438" y="99" width="9" height="9" fill="#f8fafc"/><rect x="447" y="99" width="9" height="9" fill="#f8fafc"/><rect x="456" y="99" width="9" height="9" fill="#f8fafc"/><rect x="465" y="99" width="9" height="9" fill="#f8fafc"/><rect x="474" y="99" width="9" height="9" fill="#f8fafc"/><rect x="438" y="108" width="9" height="9" fill="#f8fafc"/><rect x="474" y="108" width="9" height="9" fill="#f8fafc"/><rect x="438" y="117" width="9" height="9" fill="#f8fafc"/><rect x="474" y="117" width="9" height="9" fill="#f8fafc"/><rect x="438" y="126" width="9" height="9" fill="#f8fafc"/><rect x="474" y="126" width="9" height="9" fill="#f8fafc"/><rect x="510" y="72" width="9" height="9" fill="#f8fafc"/><rect x="519" y="72" width="9" height="9" fill="#f8fafc"/><rect x="528" y="72" width="9" height="9" fill="#f8fafc"/><rect x="519" y="81" width="9" height="9" fill="#f8fafc"/><rect x="519" y="90" width="9" height="9" fill="#f8fafc"/><rect x="519" y="99" width="9" height="9" fill="#f8fafc"/><rect x="492" y="108" width="9" height="9" fill="#f8fafc"/><rect x="519" y="108" width="9" height="9" fill="#f8fafc"/><rect x="492" y="117" width="9" height="9" fill="#f8fafc"/><rect x="519" y="117" width="9" height="9" fill="#f8fafc"/><rect x="501" y="126" width="9" height="9" fill="#f8fafc"/><rect x="510" y="126" width="9" height="9" fill="#f8fafc"/><rect x="555" y="72" width="9" height="9" fill="#f8fafc"/><rect x="564" y="72" width="9" height="9" fill="#f8fafc"/><rect x="573" y="72" width="9" height="9" fill="#f8fafc"/><rect x="546" y="81" width="9" height="9" fill="#f8fafc"/><rect x="582" y="81" width="9" height="9" fill="#f8fafc"/><rect x="546" y="90" width="9" height="9" fill="#f8fafc"/><rect x="582" y="90" width="9" height="9" fill="#f8fafc"/><rect x="546" y="99" width="9" height="9" fill="#f8fafc"/><rect x="555" y="99" width="9" height="9" fill="#f8fafc"/><rect x="564" y="99" width="9" height="9" fill="#f8fafc"/><rect x="573" y="99" width="9" height="9" fill="#f8fafc"/><rect x="582" y="99" width="9" height="9" fill="#f8fafc"/><rect x="546" y="108" width="9" height="9" fill="#f8fafc"/><rect x="582" y="108" width="9" height="9" fill="#f8fafc"/><rect x="546" y="117" width="9" height="9" fill="#f8fafc"/><rect x="582" y="117" width="9" height="9" fill="#f8fafc"/><rect x="546" y="126" width="9" height="9" fill="#f8fafc"/><rect x="582" y="126" width="9" height="9" fill="#f8fafc"/>
<text x="64" y="182" font-family="ui-monospace,Menlo,Consolas,monospace" font-size="16" letter-spacing="4"><tspan fill="#22d3ee">SHIPPING&#160;API</tspan><tspan fill="#64748b">&#160;&#160;&#183;&#160;&#160;REFERENCE&#160;DOCS</tspan></text>
<rect x="62" y="206" width="82" height="26" fill="#1e293b"/>
<rect x="62" y="206" width="4" height="26" fill="#34d399"/>
<text x="74" y="224" font-family="ui-monospace,monospace" font-size="12" letter-spacing="1" fill="#cbd5e1">34 PAGES</text>
<rect x="156" y="206" width="122" height="26" fill="#1e293b"/>
<rect x="156" y="206" width="4" height="26" fill="#22d3ee"/>
<text x="168" y="224" font-family="ui-monospace,monospace" font-size="12" letter-spacing="1" fill="#cbd5e1">18+ ENDPOINTS</text>
<rect x="290" y="206" width="106" height="26" fill="#1e293b"/>
<rect x="290" y="206" width="4" height="26" fill="#fbbf24"/>
<text x="302" y="224" font-family="ui-monospace,monospace" font-size="12" letter-spacing="1" fill="#cbd5e1">OPENAPI 3.1</text>
<rect x="408" y="206" width="90" height="26" fill="#1e293b"/>
<rect x="408" y="206" width="4" height="26" fill="#f472b6"/>
<text x="420" y="224" font-family="ui-monospace,monospace" font-size="12" letter-spacing="1" fill="#cbd5e1">TS CLIENT</text>
<rect x="720" y="120" width="10" height="4" fill="#334155"/><rect x="742" y="120" width="10" height="4" fill="#334155"/><rect x="764" y="120" width="10" height="4" fill="#334155"/><rect x="786" y="120" width="10" height="4" fill="#334155"/><rect x="808" y="120" width="10" height="4" fill="#334155"/><rect x="830" y="120" width="10" height="4" fill="#334155"/><rect x="852" y="120" width="10" height="4" fill="#334155"/><rect x="874" y="120" width="10" height="4" fill="#334155"/><rect x="896" y="120" width="10" height="4" fill="#334155"/><rect x="918" y="120" width="10" height="4" fill="#334155"/><rect x="940" y="120" width="10" height="4" fill="#334155"/><rect x="962" y="120" width="10" height="4" fill="#334155"/><rect x="984" y="120" width="10" height="4" fill="#334155"/><rect x="1006" y="120" width="10" height="4" fill="#334155"/><rect x="1028" y="120" width="10" height="4" fill="#334155"/><rect x="1050" y="120" width="10" height="4" fill="#334155"/><rect x="1072" y="120" width="10" height="4" fill="#334155"/><rect x="1094" y="120" width="10" height="4" fill="#334155"/><rect x="1116" y="120" width="10" height="4" fill="#334155"/><rect x="1138" y="120" width="10" height="4" fill="#334155"/>
<rect x="788" y="79" width="7" height="7" fill="#34d399"/><rect x="795" y="79" width="7" height="7" fill="#34d399"/><rect x="802" y="79" width="7" height="7" fill="#34d399"/><rect x="809" y="79" width="7" height="7" fill="#34d399"/><rect x="816" y="79" width="7" height="7" fill="#34d399"/><rect x="823" y="79" width="7" height="7" fill="#34d399"/><rect x="830" y="79" width="7" height="7" fill="#34d399"/><rect x="837" y="79" width="7" height="7" fill="#34d399"/><rect x="844" y="79" width="7" height="7" fill="#34d399"/><rect x="781" y="86" width="7" height="7" fill="#34d399"/><rect x="788" y="86" width="7" height="7" fill="#34d399"/><rect x="795" y="86" width="7" height="7" fill="#34d399"/><rect x="802" y="86" width="7" height="7" fill="#34d399"/><rect x="809" y="86" width="7" height="7" fill="#34d399"/><rect x="816" y="86" width="7" height="7" fill="#34d399"/><rect x="823" y="86" width="7" height="7" fill="#34d399"/><rect x="830" y="86" width="7" height="7" fill="#34d399"/><rect x="837" y="86" width="7" height="7" fill="#34d399"/><rect x="844" y="86" width="7" height="7" fill="#34d399"/><rect x="851" y="86" width="7" height="7" fill="#34d399"/><rect x="781" y="93" width="7" height="7" fill="#34d399"/><rect x="788" y="93" width="7" height="7" fill="#34d399"/><rect x="795" y="93" width="7" height="7" fill="#34d399"/><rect x="802" y="93" width="7" height="7" fill="#34d399"/><rect x="809" y="93" width="7" height="7" fill="#34d399"/><rect x="816" y="93" width="7" height="7" fill="#34d399"/><rect x="823" y="93" width="7" height="7" fill="#34d399"/><rect x="830" y="93" width="7" height="7" fill="#34d399"/><rect x="837" y="93" width="7" height="7" fill="#34d399"/><rect x="844" y="93" width="7" height="7" fill="#34d399"/><rect x="851" y="93" width="7" height="7" fill="#34d399"/><rect x="858" y="93" width="7" height="7" fill="#34d399"/><rect x="781" y="100" width="7" height="7" fill="#34d399"/><rect x="788" y="100" width="7" height="7" fill="#34d399"/><rect x="795" y="100" width="7" height="7" fill="#34d399"/><rect x="802" y="100" width="7" height="7" fill="#34d399"/><rect x="809" y="100" width="7" height="7" fill="#34d399"/><rect x="816" y="100" width="7" height="7" fill="#34d399"/><rect x="823" y="100" width="7" height="7" fill="#34d399"/><rect x="830" y="100" width="7" height="7" fill="#34d399"/><rect x="837" y="100" width="7" height="7" fill="#22d3ee"/><rect x="844" y="100" width="7" height="7" fill="#22d3ee"/><rect x="851" y="100" width="7" height="7" fill="#22d3ee"/><rect x="858" y="100" width="7" height="7" fill="#34d399"/><rect x="781" y="107" width="7" height="7" fill="#34d399"/><rect x="788" y="107" width="7" height="7" fill="#34d399"/><rect x="795" y="107" width="7" height="7" fill="#34d399"/><rect x="802" y="107" width="7" height="7" fill="#34d399"/><rect x="809" y="107" width="7" height="7" fill="#34d399"/><rect x="816" y="107" width="7" height="7" fill="#34d399"/><rect x="823" y="107" width="7" height="7" fill="#34d399"/><rect x="830" y="107" width="7" height="7" fill="#34d399"/><rect x="837" y="107" width="7" height="7" fill="#22d3ee"/><rect x="844" y="107" width="7" height="7" fill="#22d3ee"/><rect x="851" y="107" width="7" height="7" fill="#22d3ee"/><rect x="858" y="107" width="7" height="7" fill="#fbbf24"/><rect x="865" y="107" width="7" height="7" fill="#fbbf24"/><rect x="781" y="114" width="7" height="7" fill="#34d399"/><rect x="788" y="114" width="7" height="7" fill="#34d399"/><rect x="795" y="114" width="7" height="7" fill="#34d399"/><rect x="802" y="114" width="7" height="7" fill="#34d399"/><rect x="809" y="114" width="7" height="7" fill="#34d399"/><rect x="816" y="114" width="7" height="7" fill="#34d399"/><rect x="823" y="114" width="7" height="7" fill="#34d399"/><rect x="830" y="114" width="7" height="7" fill="#34d399"/><rect x="837" y="114" width="7" height="7" fill="#34d399"/><rect x="844" y="114" width="7" height="7" fill="#34d399"/><rect x="851" y="114" width="7" height="7" fill="#34d399"/><rect x="858" y="114" width="7" height="7" fill="#34d399"/><rect x="865" y="114" width="7" height="7" fill="#fbbf24"/><rect x="781" y="121" width="7" height="7" fill="#12a877"/><rect x="788" y="121" width="7" height="7" fill="#12a877"/><rect x="795" y="121" width="7" height="7" fill="#12a877"/><rect x="802" y="121" width="7" height="7" fill="#12a877"/><rect x="809" y="121" width="7" height="7" fill="#12a877"/><rect x="816" y="121" width="7" height="7" fill="#12a877"/><rect x="823" y="121" width="7" height="7" fill="#12a877"/><rect x="830" y="121" width="7" height="7" fill="#12a877"/><rect x="837" y="121" width="7" height="7" fill="#12a877"/><rect x="844" y="121" width="7" height="7" fill="#12a877"/><rect x="851" y="121" width="7" height="7" fill="#12a877"/><rect x="858" y="121" width="7" height="7" fill="#12a877"/><rect x="781" y="128" width="7" height="7" fill="#12a877"/><rect x="788" y="128" width="7" height="7" fill="#12a877"/><rect x="795" y="128" width="7" height="7" fill="#12a877"/><rect x="802" y="128" width="7" height="7" fill="#12a877"/><rect x="809" y="128" width="7" height="7" fill="#12a877"/><rect x="816" y="128" width="7" height="7" fill="#12a877"/><rect x="823" y="128" width="7" height="7" fill="#12a877"/><rect x="830" y="128" width="7" height="7" fill="#12a877"/><rect x="837" y="128" width="7" height="7" fill="#12a877"/><rect x="844" y="128" width="7" height="7" fill="#12a877"/><rect x="851" y="128" width="7" height="7" fill="#12a877"/><rect x="858" y="128" width="7" height="7" fill="#12a877"/><rect x="781" y="135" width="7" height="7" fill="#0b1220"/><rect x="788" y="135" width="7" height="7" fill="#0b1220"/><rect x="795" y="135" width="7" height="7" fill="#0b1220"/><rect x="844" y="135" width="7" height="7" fill="#0b1220"/><rect x="851" y="135" width="7" height="7" fill="#0b1220"/><rect x="858" y="135" width="7" height="7" fill="#0b1220"/><rect x="774" y="142" width="7" height="7" fill="#0b1220"/><rect x="781" y="142" width="7" height="7" fill="#0b1220"/><rect x="788" y="142" width="7" height="7" fill="#64748b"/><rect x="795" y="142" width="7" height="7" fill="#0b1220"/><rect x="802" y="142" width="7" height="7" fill="#0b1220"/><rect x="837" y="142" width="7" height="7" fill="#0b1220"/><rect x="844" y="142" width="7" height="7" fill="#0b1220"/><rect x="851" y="142" width="7" height="7" fill="#64748b"/><rect x="858" y="142" width="7" height="7" fill="#0b1220"/><rect x="865" y="142" width="7" height="7" fill="#0b1220"/><rect x="781" y="149" width="7" height="7" fill="#0b1220"/><rect x="788" y="149" width="7" height="7" fill="#0b1220"/><rect x="795" y="149" width="7" height="7" fill="#0b1220"/><rect x="844" y="149" width="7" height="7" fill="#0b1220"/><rect x="851" y="149" width="7" height="7" fill="#0b1220"/><rect x="858" y="149" width="7" height="7" fill="#0b1220"/>
<rect x="976" y="86" width="8" height="8" fill="#b45309"/><rect x="984" y="86" width="8" height="8" fill="#b45309"/><rect x="992" y="86" width="8" height="8" fill="#b45309"/><rect x="1000" y="86" width="8" height="8" fill="#b45309"/><rect x="1008" y="86" width="8" height="8" fill="#b45309"/><rect x="1016" y="86" width="8" height="8" fill="#b45309"/><rect x="1024" y="86" width="8" height="8" fill="#b45309"/><rect x="968" y="94" width="8" height="8" fill="#b45309"/><rect x="976" y="94" width="8" height="8" fill="#78350f"/><rect x="984" y="94" width="8" height="8" fill="#78350f"/><rect x="992" y="94" width="8" height="8" fill="#78350f"/><rect x="1000" y="94" width="8" height="8" fill="#78350f"/><rect x="1008" y="94" width="8" height="8" fill="#78350f"/><rect x="1016" y="94" width="8" height="8" fill="#78350f"/><rect x="1024" y="94" width="8" height="8" fill="#78350f"/><rect x="1032" y="94" width="8" height="8" fill="#b45309"/><rect x="968" y="102" width="8" height="8" fill="#b45309"/><rect x="976" y="102" width="8" height="8" fill="#78350f"/><rect x="984" y="102" width="8" height="8" fill="#fbbf24"/><rect x="992" y="102" width="8" height="8" fill="#fbbf24"/><rect x="1000" y="102" width="8" height="8" fill="#fbbf24"/><rect x="1008" y="102" width="8" height="8" fill="#fbbf24"/><rect x="1016" y="102" width="8" height="8" fill="#fbbf24"/><rect x="1024" y="102" width="8" height="8" fill="#78350f"/><rect x="1032" y="102" width="8" height="8" fill="#b45309"/><rect x="968" y="110" width="8" height="8" fill="#b45309"/><rect x="976" y="110" width="8" height="8" fill="#78350f"/><rect x="984" y="110" width="8" height="8" fill="#fbbf24"/><rect x="992" y="110" width="8" height="8" fill="#78350f"/><rect x="1000" y="110" width="8" height="8" fill="#78350f"/><rect x="1008" y="110" width="8" height="8" fill="#78350f"/><rect x="1016" y="110" width="8" height="8" fill="#fbbf24"/><rect x="1024" y="110" width="8" height="8" fill="#78350f"/><rect x="1032" y="110" width="8" height="8" fill="#b45309"/><rect x="968" y="118" width="8" height="8" fill="#b45309"/><rect x="976" y="118" width="8" height="8" fill="#78350f"/><rect x="984" y="118" width="8" height="8" fill="#fbbf24"/><rect x="992" y="118" width="8" height="8" fill="#78350f"/><rect x="1000" y="118" width="8" height="8" fill="#78350f"/><rect x="1008" y="118" width="8" height="8" fill="#78350f"/><rect x="1016" y="118" width="8" height="8" fill="#fbbf24"/><rect x="1024" y="118" width="8" height="8" fill="#78350f"/><rect x="1032" y="118" width="8" height="8" fill="#b45309"/><rect x="968" y="126" width="8" height="8" fill="#b45309"/><rect x="976" y="126" width="8" height="8" fill="#78350f"/><rect x="984" y="126" width="8" height="8" fill="#fbbf24"/><rect x="992" y="126" width="8" height="8" fill="#fbbf24"/><rect x="1000" y="126" width="8" height="8" fill="#fbbf24"/><rect x="1008" y="126" width="8" height="8" fill="#fbbf24"/><rect x="1016" y="126" width="8" height="8" fill="#fbbf24"/><rect x="1024" y="126" width="8" height="8" fill="#78350f"/><rect x="1032" y="126" width="8" height="8" fill="#b45309"/><rect x="968" y="134" width="8" height="8" fill="#b45309"/><rect x="976" y="134" width="8" height="8" fill="#78350f"/><rect x="984" y="134" width="8" height="8" fill="#78350f"/><rect x="992" y="134" width="8" height="8" fill="#78350f"/><rect x="1000" y="134" width="8" height="8" fill="#78350f"/><rect x="1008" y="134" width="8" height="8" fill="#78350f"/><rect x="1016" y="134" width="8" height="8" fill="#78350f"/><rect x="1024" y="134" width="8" height="8" fill="#78350f"/><rect x="1032" y="134" width="8" height="8" fill="#b45309"/><rect x="968" y="142" width="8" height="8" fill="#b45309"/><rect x="976" y="142" width="8" height="8" fill="#b45309"/><rect x="984" y="142" width="8" height="8" fill="#b45309"/><rect x="992" y="142" width="8" height="8" fill="#b45309"/><rect x="1000" y="142" width="8" height="8" fill="#b45309"/><rect x="1008" y="142" width="8" height="8" fill="#b45309"/><rect x="1016" y="142" width="8" height="8" fill="#b45309"/><rect x="1024" y="142" width="8" height="8" fill="#b45309"/><rect x="1032" y="142" width="8" height="8" fill="#b45309"/>
<rect x="1106" y="66" width="8" height="8" fill="#f8fafc"/><rect x="1114" y="66" width="8" height="8" fill="#f8fafc"/><rect x="1122" y="66" width="8" height="8" fill="#f8fafc"/><rect x="1130" y="66" width="8" height="8" fill="#f8fafc"/><rect x="1138" y="66" width="8" height="8" fill="#f8fafc"/><rect x="1098" y="74" width="8" height="8" fill="#f8fafc"/><rect x="1106" y="74" width="8" height="8" fill="#34d399"/><rect x="1114" y="74" width="8" height="8" fill="#34d399"/><rect x="1122" y="74" width="8" height="8" fill="#34d399"/><rect x="1130" y="74" width="8" height="8" fill="#34d399"/><rect x="1138" y="74" width="8" height="8" fill="#34d399"/><rect x="1146" y="74" width="8" height="8" fill="#f8fafc"/><rect x="1090" y="82" width="8" height="8" fill="#f8fafc"/><rect x="1098" y="82" width="8" height="8" fill="#34d399"/><rect x="1106" y="82" width="8" height="8" fill="#34d399"/><rect x="1114" y="82" width="8" height="8" fill="#f8fafc"/><rect x="1122" y="82" width="8" height="8" fill="#f8fafc"/><rect x="1130" y="82" width="8" height="8" fill="#f8fafc"/><rect x="1138" y="82" width="8" height="8" fill="#34d399"/><rect x="1146" y="82" width="8" height="8" fill="#34d399"/><rect x="1154" y="82" width="8" height="8" fill="#f8fafc"/><rect x="1090" y="90" width="8" height="8" fill="#f8fafc"/><rect x="1098" y="90" width="8" height="8" fill="#34d399"/><rect x="1106" y="90" width="8" height="8" fill="#f8fafc"/><rect x="1114" y="90" width="8" height="8" fill="#22d3ee"/><rect x="1122" y="90" width="8" height="8" fill="#22d3ee"/><rect x="1130" y="90" width="8" height="8" fill="#22d3ee"/><rect x="1138" y="90" width="8" height="8" fill="#f8fafc"/><rect x="1146" y="90" width="8" height="8" fill="#34d399"/><rect x="1154" y="90" width="8" height="8" fill="#f8fafc"/><rect x="1090" y="98" width="8" height="8" fill="#f8fafc"/><rect x="1098" y="98" width="8" height="8" fill="#34d399"/><rect x="1106" y="98" width="8" height="8" fill="#f8fafc"/><rect x="1114" y="98" width="8" height="8" fill="#22d3ee"/><rect x="1122" y="98" width="8" height="8" fill="#22d3ee"/><rect x="1130" y="98" width="8" height="8" fill="#22d3ee"/><rect x="1138" y="98" width="8" height="8" fill="#f8fafc"/><rect x="1146" y="98" width="8" height="8" fill="#34d399"/><rect x="1154" y="98" width="8" height="8" fill="#f8fafc"/><rect x="1090" y="106" width="8" height="8" fill="#f8fafc"/><rect x="1098" y="106" width="8" height="8" fill="#34d399"/><rect x="1106" y="106" width="8" height="8" fill="#34d399"/><rect x="1114" y="106" width="8" height="8" fill="#f8fafc"/><rect x="1122" y="106" width="8" height="8" fill="#f8fafc"/><rect x="1130" y="106" width="8" height="8" fill="#f8fafc"/><rect x="1138" y="106" width="8" height="8" fill="#34d399"/><rect x="1146" y="106" width="8" height="8" fill="#34d399"/><rect x="1154" y="106" width="8" height="8" fill="#f8fafc"/><rect x="1098" y="114" width="8" height="8" fill="#f8fafc"/><rect x="1106" y="114" width="8" height="8" fill="#34d399"/><rect x="1114" y="114" width="8" height="8" fill="#34d399"/><rect x="1122" y="114" width="8" height="8" fill="#34d399"/><rect x="1130" y="114" width="8" height="8" fill="#34d399"/><rect x="1138" y="114" width="8" height="8" fill="#34d399"/><rect x="1146" y="114" width="8" height="8" fill="#f8fafc"/><rect x="1106" y="122" width="8" height="8" fill="#f8fafc"/><rect x="1114" y="122" width="8" height="8" fill="#34d399"/><rect x="1122" y="122" width="8" height="8" fill="#34d399"/><rect x="1130" y="122" width="8" height="8" fill="#34d399"/><rect x="1138" y="122" width="8" height="8" fill="#f8fafc"/><rect x="1114" y="130" width="8" height="8" fill="#f8fafc"/><rect x="1122" y="130" width="8" height="8" fill="#34d399"/><rect x="1130" y="130" width="8" height="8" fill="#f8fafc"/><rect x="1122" y="138" width="8" height="8" fill="#f8fafc"/>
<rect x="762" y="210" width="24" height="13" fill="#e11d48"/>
<rect x="789" y="210" width="24" height="13" fill="#f97316"/>
<rect x="816" y="210" width="24" height="13" fill="#eab308"/>
<rect x="843" y="210" width="24" height="13" fill="#22c55e"/>
<rect x="870" y="210" width="24" height="13" fill="#06b6d4"/>
<rect x="897" y="210" width="24" height="13" fill="#6366f1"/>
<rect x="924" y="210" width="24" height="13" fill="#a855f7"/>
<rect x="951" y="210" width="24" height="13" fill="#ec4899"/>
<rect x="978" y="210" width="24" height="13" fill="#14b8a6"/>
<text x="762" y="244" font-family="ui-monospace,monospace" font-size="10" letter-spacing="0.5" fill="#64748b">JNE&#183;SICEPAT&#183;J&amp;T&#183;ANTERAJA&#183;NINJA&#183;LION&#183;IDEXPRESS&#183;SAP&#183;POS</text>
<rect x="1" y="1" width="1198" height="258" rx="13" fill="none" stroke="#34d399" stroke-opacity="0.35" stroke-width="2"/>
</g></svg>